<svg xmlns="http://www.w3.org/2000/svg" viewBox="0 0 24 24"><defs><linearGradient id="scoopGrad" x1="0%" y1="0%" x2="0%" y2="100%"><stop offset="0%" style="stop-color:#7EC8E3"/><stop offset="100%" style="stop-color:#5BA4CF"/></linearGradient></defs><path d="M11 2.5c-.3 0-.5.1-.7.3L6.5 8H4.5C3.7 8 3 8.7 3 9.5v1C3 11.3 3.7 12 4.5 12h.3l1.5 8.2c.2.9 1 1.5 1.9 1.5h7.6c.9 0 1.7-.7 1.9-1.5L19.2 12h.3c.8 0 1.5-.7 1.5-1.5v-1c0-.8-.7-1.5-1.5-1.5h-2l-3.8-5.2c-.2-.2-.4-.3-.7-.3h-2z" fill="url(#scoopGrad)"/><path d="M8.5 14h7l-.7 4H9.2L8.5 14z" fill="white" opacity="0.25"/><rect x="4" y="9" width="16" height="2" rx="0.5" fill="white" opacity="0.15"/></svg>